HIERARCHY
ROOT Hips
{
	OFFSET 0.000000 0.000000 0.000000
	CHANNELS 6 Xposition Yposition Zposition Zrotation Yrotation Xrotation 
	JOINT LHipJoint
	{
		OFFSET 0.000000 0.000000 0.000000
		CHANNELS 3 Zrotation Yrotation Xrotation
		JOINT LeftUpLeg
		{
			OFFSET 1.363060 -1.794630 0.839290
			CHANNELS 3 Zrotation Yrotation Xrotation
			JOINT LeftLeg
			{
				OFFSET 2.448110 -6.726130 0.000000
				CHANNELS 3 Zrotation Yrotation Xrotation
				JOINT LeftFoot
				{
					OFFSET 2.562200 -7.039590 0.000000
					CHANNELS 3 Zrotation Yrotation Xrotation
					JOINT LeftToeBase
					{
						OFFSET 0.157640 -0.433110 2.322550
						CHANNELS 3 Zrotation Yrotation Xrotation
						End Site
						{
							OFFSET 0.000000 0.000000 0.000000
						}
					}
				}
			}
		}
	}
	JOINT RHipJoint
	{
		OFFSET 0.000000 0.000000 0.000000
		CHANNELS 3 Zrotation Yrotation Xrotation
		JOINT RightUpLeg
		{
			OFFSET -1.305520 -1.794630 0.839290
			CHANNELS 3 Zrotation Yrotation Xrotation
			JOINT RightLeg
			{
				OFFSET -2.542530 -6.985550 0.000000
				CHANNELS 3 Zrotation Yrotation Xrotation
				JOINT RightFoot
				{
					OFFSET -2.568260 -7.056230 0.000000
					CHANNELS 3 Zrotation Yrotation Xrotation
					JOINT RightToeBase
					{
						OFFSET -0.164730 -0.452590 2.363150
						CHANNELS 3 Zrotation Yrotation Xrotation
						End Site
						{
							OFFSET 0.000000 0.000000 0.000000
						}
					}
				}
			}
		}
	}
	JOINT LowerBack
	{
		OFFSET 0.000000 0.000000 0.000000
		CHANNELS 3 Zrotation Yrotation Xrotation
		JOINT Spine
		{
			OFFSET 0.028270 2.035590 -0.193380
			CHANNELS 3 Zrotation Yrotation Xrotation
			JOINT Spine1
			{
				OFFSET 0.056720 2.048850 -0.042750
				CHANNELS 3 Zrotation Yrotation Xrotation
				JOINT Neck
				{
					OFFSET 0.000000 0.000000 0.000000
					CHANNELS 3 Zrotation Yrotation Xrotation
					JOINT Neck1
					{
						OFFSET -0.054170 1.746240 0.172020
						CHANNELS 3 Zrotation Yrotation Xrotation
						JOINT Head
						{
							OFFSET 0.104070 1.761360 -0.123970
							CHANNELS 3 Zrotation Yrotation Xrotation
							End Site
							{
								OFFSET 0.000000 0.000000 0.000000
							}
						}
					}
				}
				JOINT LeftShoulder
				{
					OFFSET 0.000000 0.000000 0.000000
					CHANNELS 3 Zrotation Yrotation Xrotation
					JOINT LeftArm
					{
						OFFSET 3.362410 1.200890 -0.311210
						CHANNELS 3 Zrotation Yrotation Xrotation
						JOINT LeftForeArm
						{
							OFFSET 4.983000 -0.000000 -0.000000
							CHANNELS 3 Zrotation Yrotation Xrotation
							JOINT LeftHand
							{
								OFFSET 3.483560 -0.000000 -0.000000
								CHANNELS 3 Zrotation Yrotation Xrotation
								JOINT LeftFingerBase
								{
									OFFSET 0.000000 0.000000 0.000000
									CHANNELS 3 Zrotation Yrotation Xrotation
									JOINT LeftHandIndex1
									{
										OFFSET 0.715260 -0.000000 -0.000000
										CHANNELS 3 Zrotation Yrotation Xrotation
										End Site
										{
											OFFSET 0.000000 0.000000 0.000000
										}
									}
								}
								JOINT LThumb
								{
									OFFSET 0.000000 0.000000 0.000000
									CHANNELS 3 Zrotation Yrotation Xrotation
									End Site
									{
										OFFSET 0.000000 0.000000 0.000000
									}
								}
							}
						}
					}
				}
				JOINT RightShoulder
				{
					OFFSET 0.000000 0.000000 0.000000
					CHANNELS 3 Zrotation Yrotation Xrotation
					JOINT RightArm
					{
						OFFSET -3.136600 1.374050 -0.404650
						CHANNELS 3 Zrotation Yrotation Xrotation
						JOINT RightForeArm
						{
							OFFSET -5.241900 -0.000000 -0.000000
							CHANNELS 3 Zrotation Yrotation Xrotation
							JOINT RightHand
							{
								OFFSET -3.444170 -0.000000 -0.000000
								CHANNELS 3 Zrotation Yrotation Xrotation
								JOINT RightFingerBase
								{
									OFFSET 0.000000 0.000000 0.000000
									CHANNELS 3 Zrotation Yrotation Xrotation
									JOINT RightHandIndex1
									{
										OFFSET -0.622530 -0.000000 -0.000000
										CHANNELS 3 Zrotation Yrotation Xrotation
										End Site
										{
											OFFSET 0.000000 0.000000 0.000000
										}
									}
								}
								JOINT RThumb
								{
									OFFSET 0.000000 0.000000 0.000000
									CHANNELS 3 Zrotation Yrotation Xrotation
									End Site
									{
										OFFSET 0.000000 0.000000 0.000000
									}
								}
							}
						}
					}
				}
			}
		}
	}
}
MOTION
Frames: 4
Frame Time: 0.008333
-37.089758 16.954375 -0.615226 96.442592 81.078090 95.899822 -4.995438 -4.446705 0.363462 -25.881575 2.620867 -10.243207 0.098501 13.349823 33.298240 2.836193 -3.999295 -7.545138 0.315500 3.610600 9.983500 1.828529 4.323061 -2.956508 0.189635 -5.482664 -11.140474 -7.991755 -17.684584 54.108539 -40.550417 12.969795 172.713433 -0.827700 -5.804200 16.217400 -10.533601 0.995086 17.044509 -0.265148 -0.103037 -2.945866 0.240553 -0.068388 1.796091 -5.050834 -1.895941 -25.694551 7.835866 -0.389107 1.312691 2.001400 0.146600 9.015100 7.582215 -2.044427 -0.520283 -81.326759 -1.129130 51.899655 92.867545 -59.325854 -66.577198 -2.299914 0.887395 -14.989706 46.109647 -29.016242 -29.102400 -7.125000 0.000000 0.000000 9.380000 -10.346900 -11.047600 -7.532200 3.999374 1.334149 78.666343 -28.682114 51.839832 -98.274333 57.974927 -64.018794 2.398880 0.405892 -22.363457 -34.214701 -27.841623 18.254000 7.125000 0.000000 0.000000 -8.187500 -61.497600 3.300500 
-36.642905 16.999572 -0.631344 96.545921 80.639548 95.923046 -4.963416 -4.174327 0.760692 -26.520286 3.299574 -8.269176 -0.115792 12.964244 32.153004 2.958862 -4.279313 -8.367824 0.217000 2.998600 8.274900 1.881011 4.400866 -3.148869 -0.338193 -4.907391 -13.949231 -7.752484 -17.427226 53.133760 -40.399608 11.465403 173.222930 -0.607900 -4.990300 13.881000 -10.594727 1.050353 17.642706 -0.387006 -0.203517 -3.029552 -0.422972 0.017959 1.026171 -4.868343 -2.134467 -25.184707 7.891685 -0.811966 1.116365 1.979800 -0.033700 8.871500 7.528677 -2.175771 -0.550750 -81.731325 -3.480181 51.987135 94.962499 -59.182971 -68.393369 -2.253974 0.991721 -12.556570 45.964616 -29.406085 -29.253000 -7.125000 0.000000 0.000000 9.183300 -10.717800 -10.857900 -7.531440 4.222978 1.400758 79.097547 -32.109914 51.149912 -98.675767 57.930409 -64.344482 2.404840 0.409174 -22.369716 -33.455166 -27.838125 17.803000 7.125000 0.000000 0.000000 -7.213200 -61.318900 2.874800 
-36.169478 17.048799 -0.656284 94.883924 80.397605 94.502388 -4.993102 -3.927224 1.130071 -26.937472 3.843076 -6.339145 -0.414236 12.421448 30.563041 3.144779 -4.782114 -8.822087 0.234200 3.114400 8.597400 1.873761 4.491762 -3.399477 -0.701070 -3.995499 -16.836601 -7.598466 -17.260346 52.476417 -40.264791 9.937913 173.393075 -0.506700 -4.563000 12.666200 -10.978769 0.974624 17.298899 -0.377645 -0.350056 -3.066514 -0.148128 -0.077125 0.960820 -4.988826 -2.074977 -24.991104 7.884770 -0.704558 1.196230 1.984500 0.005300 8.864800 7.583360 -2.219990 -0.581111 -82.887704 -5.942708 51.452671 96.655584 -59.053852 -69.822685 -2.230475 1.186868 -10.804810 46.241865 -31.310433 -30.904200 -7.125000 0.000000 0.000000 8.705600 -13.130200 -10.562700 -7.466505 4.240961 1.425759 78.314029 -34.953838 51.364514 -98.875364 57.970910 -64.552200 2.360797 0.328526 -22.584325 -32.165752 -25.867314 15.884200 7.125000 0.000000 0.000000 -5.859900 -58.800200 1.981100 
-35.648677 17.121986 -0.667066 98.358550 80.270200 97.864221 -4.994480 -3.446689 1.544006 -27.079759 3.421686 -3.220522 -0.796830 11.724441 28.555254 3.303181 -5.296238 -8.980348 0.294400 3.489300 9.644000 1.788740 4.637278 -3.663877 -0.525961 -4.436411 -18.989539 -7.804115 -17.338801 53.042598 -40.242200 9.661711 173.322268 -0.491200 -4.493800 12.470200 -11.187139 0.588240 16.994490 -0.308385 -0.825482 -3.030739 0.301874 -0.382871 1.441682 -5.104581 -1.988533 -25.458994 7.851764 -0.490608 1.374336 1.973000 0.099300 9.039800 7.660768 -2.184551 -0.606956 -83.912943 -8.555513 51.052291 99.111608 -58.877001 -71.879261 -2.185016 1.278472 -8.860026 46.048191 -30.855697 -30.443400 -7.125000 0.000000 0.000000 8.730100 -12.569000 -10.528900 -7.413523 4.187617 1.433043 77.492822 -37.467534 51.528474 -99.065159 58.042129 -64.868696 2.316380 0.354346 -22.830008 -31.925942 -25.542776 15.580000 7.125000 0.000000 0.000000 -5.577400 -58.437200 1.836600 
